{
	"asset":{
		"generator":"Khronos glTF Blender I/O v5.0.21",
		"version":"2.0"
	},
	"scene":0,
	"scenes":[
		{
			"name":"Scene",
			"nodes":[
				0
			]
		}
	],
	"nodes":[
		{
			"mesh":0,
			"name":"Coffee Shop"
		}
	],
	"materials":[
		{
			"doubleSided":true,
			"name":"RMA black",
			"pbrMetallicRoughness":{
				"baseColorFactor":[
					0.00834369845688343,
					0.00834369845688343,
					0.00834369845688343,
					1
				],
				"metallicFactor":0
			}
		},
		{
			"doubleSided":true,
			"name":"RMA dark grey.002",
			"pbrMetallicRoughness":{
				"baseColorFactor":[
					0.05214982479810715,
					0.05214982479810715,
					0.05214982479810715,
					1
				],
				"metallicFactor":0,
				"roughnessFactor":0.5
			}
		},
		{
			"doubleSided":true,
			"name":"RMA Dark Red",
			"pbrMetallicRoughness":{
				"baseColorFactor":[
					0.29176923632621765,
					0.011612217873334885,
					0.021219026297330856,
					1
				],
				"metallicFactor":0
			}
		},
		{
			"doubleSided":true,
			"name":"RMA Dark blue.003",
			"pbrMetallicRoughness":{
				"baseColorFactor":[
					0.0015174087602645159,
					0.10461656004190445,
					0.2050788253545761,
					1
				],
				"metallicFactor":0,
				"roughnessFactor":0.5
			}
		},
		{
			"doubleSided":true,
			"name":"RMA Red",
			"pbrMetallicRoughness":{
				"baseColorFactor":[
					0.5840756297111511,
					0.014443770051002502,
					0.04231143742799759,
					1
				],
				"metallicFactor":0
			}
		},
		{
			"doubleSided":true,
			"name":"Cream",
			"pbrMetallicRoughness":{
				"baseColorFactor":[
					0.5576698780059814,
					0.4028438925743103,
					0.25192487239837646,
					1
				],
				"metallicFactor":0
			}
		},
		{
			"doubleSided":true,
			"name":"RMA WHite",
			"pbrMetallicRoughness":{
				"baseColorFactor":[
					0.800000011920929,
					0.800000011920929,
					0.800000011920929,
					1
				],
				"metallicFactor":0
			}
		},
		{
			"doubleSided":true,
			"name":"Glass",
			"pbrMetallicRoughness":{
				"baseColorFactor":[
					0.2723202109336853,
					0.47005295753479004,
					0.5574502944946289,
					1
				],
				"metallicFactor":0
			}
		},
		{
			"doubleSided":true,
			"name":"RMA Yellow",
			"pbrMetallicRoughness":{
				"baseColorFactor":[
					0.8631525039672852,
					0.38132646679878235,
					0.015208621509373188,
					1
				],
				"metallicFactor":0
			}
		}
	],
	"meshes":[
		{
			"name":"Text.011",
			"primitives":[
				{
					"attributes":{
						"POSITION":0,
						"NORMAL":1,
						"TEXCOORD_0":2
					},
					"indices":3,
					"material":0
				},
				{
					"attributes":{
						"POSITION":4,
						"NORMAL":5,
						"TEXCOORD_0":6
					},
					"indices":7,
					"material":1
				},
				{
					"attributes":{
						"POSITION":8,
						"NORMAL":9,
						"TEXCOORD_0":10
					},
					"indices":11,
					"material":2
				},
				{
					"attributes":{
						"POSITION":12,
						"NORMAL":13,
						"TEXCOORD_0":14
					},
					"indices":15
				},
				{
					"attributes":{
						"POSITION":16,
						"NORMAL":17,
						"TEXCOORD_0":18
					},
					"indices":19,
					"material":3
				},
				{
					"attributes":{
						"POSITION":20,
						"NORMAL":21,
						"TEXCOORD_0":22
					},
					"indices":23,
					"material":4
				},
				{
					"attributes":{
						"POSITION":24,
						"NORMAL":25,
						"TEXCOORD_0":26
					},
					"indices":27,
					"material":5
				},
				{
					"attributes":{
						"POSITION":28,
						"NORMAL":29,
						"TEXCOORD_0":30
					},
					"indices":31,
					"material":6
				},
				{
					"attributes":{
						"POSITION":32,
						"NORMAL":33,
						"TEXCOORD_0":34
					},
					"indices":35,
					"material":7
				},
				{
					"attributes":{
						"POSITION":36,
						"NORMAL":37,
						"TEXCOORD_0":38
					},
					"indices":39,
					"material":8
				}
			]
		}
	],
	"accessors":[
		{
			"bufferView":0,
			"componentType":5126,
			"count":3661,
			"max":[
				10.463939666748047,
				16.12006378173828,
				-2.0330007076263428
			],
			"min":[
				-9.736542701721191,
				1.4219295978546143,
				-22.33340835571289
			],
			"type":"VEC3"
		},
		{
			"bufferView":1,
			"componentType":5126,
			"count":3661,
			"type":"VEC3"
		},
		{
			"bufferView":2,
			"componentType":5126,
			"count":3661,
			"type":"VEC2"
		},
		{
			"bufferView":3,
			"componentType":5123,
			"count":10620,
			"type":"SCALAR"
		},
		{
			"bufferView":4,
			"componentType":5126,
			"count":390,
			"max":[
				18.948076248168945,
				13.490457534790039,
				24.264690399169922
			],
			"min":[
				-20.94620704650879,
				1.4089995622634888,
				9.99625301361084
			],
			"type":"VEC3"
		},
		{
			"bufferView":5,
			"componentType":5126,
			"count":390,
			"type":"VEC3"
		},
		{
			"bufferView":6,
			"componentType":5126,
			"count":390,
			"type":"VEC2"
		},
		{
			"bufferView":7,
			"componentType":5123,
			"count":552,
			"type":"SCALAR"
		},
		{
			"bufferView":8,
			"componentType":5126,
			"count":10195,
			"max":[
				18.948070526123047,
				15.293813705444336,
				24.264698028564453
			],
			"min":[
				-20.946197509765625,
				0.4221068322658539,
				-22.078514099121094
			],
			"type":"VEC3"
		},
		{
			"bufferView":9,
			"componentType":5126,
			"count":10195,
			"type":"VEC3"
		},
		{
			"bufferView":10,
			"componentType":5126,
			"count":10195,
			"type":"VEC2"
		},
		{
			"bufferView":11,
			"componentType":5123,
			"count":33456,
			"type":"SCALAR"
		},
		{
			"bufferView":12,
			"componentType":5126,
			"count":268,
			"max":[
				15.735189437866211,
				5.076544761657715,
				21.364582061767578
			],
			"min":[
				-17.74473762512207,
				1.3949249982833862,
				12.848246574401855
			],
			"type":"VEC3"
		},
		{
			"bufferView":13,
			"componentType":5126,
			"count":268,
			"type":"VEC3"
		},
		{
			"bufferView":14,
			"componentType":5126,
			"count":268,
			"type":"VEC2"
		},
		{
			"bufferView":15,
			"componentType":5123,
			"count":480,
			"type":"SCALAR"
		},
		{
			"bufferView":16,
			"componentType":5126,
			"count":144,
			"max":[
				16.783517837524414,
				5.760122299194336,
				23.36935043334961
			],
			"min":[
				-19.089696884155273,
				1.4349863529205322,
				10.717264175415039
			],
			"type":"VEC3"
		},
		{
			"bufferView":17,
			"componentType":5126,
			"count":144,
			"type":"VEC3"
		},
		{
			"bufferView":18,
			"componentType":5126,
			"count":144,
			"type":"VEC2"
		},
		{
			"bufferView":19,
			"componentType":5123,
			"count":240,
			"type":"SCALAR"
		},
		{
			"bufferView":20,
			"componentType":5126,
			"count":1514,
			"max":[
				7.762125492095947,
				19.938701629638672,
				-6.553623199462891
			],
			"min":[
				-5.670000076293945,
				14.352002143859863,
				-18.089679718017578
			],
			"type":"VEC3"
		},
		{
			"bufferView":21,
			"componentType":5126,
			"count":1514,
			"type":"VEC3"
		},
		{
			"bufferView":22,
			"componentType":5126,
			"count":1514,
			"type":"VEC2"
		},
		{
			"bufferView":23,
			"componentType":5123,
			"count":9060,
			"type":"SCALAR"
		},
		{
			"bufferView":24,
			"componentType":5126,
			"count":3976,
			"max":[
				10.247291564941406,
				12.814650535583496,
				-2.132920503616333
			],
			"min":[
				-9.759632110595703,
				-0.07948766648769379,
				-22.11701774597168
			],
			"type":"VEC3"
		},
		{
			"bufferView":25,
			"componentType":5126,
			"count":3976,
			"type":"VEC3"
		},
		{
			"bufferView":26,
			"componentType":5126,
			"count":3976,
			"type":"VEC2"
		},
		{
			"bufferView":27,
			"componentType":5123,
			"count":8244,
			"type":"SCALAR"
		},
		{
			"bufferView":28,
			"componentType":5126,
			"count":4,
			"max":[
				10.090160369873047,
				14.164472579956055,
				-6.111504077911377
			],
			"min":[
				-9.318741798400879,
				14.164466857910156,
				-22.078514099121094
			],
			"type":"VEC3"
		},
		{
			"bufferView":29,
			"componentType":5126,
			"count":4,
			"type":"VEC3"
		},
		{
			"bufferView":30,
			"componentType":5126,
			"count":4,
			"type":"VEC2"
		},
		{
			"bufferView":31,
			"componentType":5123,
			"count":6,
			"type":"SCALAR"
		},
		{
			"bufferView":32,
			"componentType":5126,
			"count":98,
			"max":[
				8.261496543884277,
				10.766719818115234,
				-8.255338668823242
			],
			"min":[
				-7.622842788696289,
				1.9837603569030762,
				-9.505407333374023
			],
			"type":"VEC3"
		},
		{
			"bufferView":33,
			"componentType":5126,
			"count":98,
			"type":"VEC3"
		},
		{
			"bufferView":34,
			"componentType":5126,
			"count":98,
			"type":"VEC2"
		},
		{
			"bufferView":35,
			"componentType":5123,
			"count":108,
			"type":"SCALAR"
		},
		{
			"bufferView":36,
			"componentType":5126,
			"count":5008,
			"max":[
				8.844054222106934,
				16.443668365478516,
				-5.979301929473877
			],
			"min":[
				-7.839203834533691,
				14.189369201660156,
				-6.855216979980469
			],
			"type":"VEC3"
		},
		{
			"bufferView":37,
			"componentType":5126,
			"count":5008,
			"type":"VEC3"
		},
		{
			"bufferView":38,
			"componentType":5126,
			"count":5008,
			"type":"VEC2"
		},
		{
			"bufferView":39,
			"componentType":5123,
			"count":12612,
			"type":"SCALAR"
		}
	],
	"bufferViews":[
		{
			"buffer":0,
			"byteLength":43932,
			"byteOffset":0,
			"target":34962
		},
		{
			"buffer":0,
			"byteLength":43932,
			"byteOffset":43932,
			"target":34962
		},
		{
			"buffer":0,
			"byteLength":29288,
			"byteOffset":87864,
			"target":34962
		},
		{
			"buffer":0,
			"byteLength":21240,
			"byteOffset":117152,
			"target":34963
		},
		{
			"buffer":0,
			"byteLength":4680,
			"byteOffset":138392,
			"target":34962
		},
		{
			"buffer":0,
			"byteLength":4680,
			"byteOffset":143072,
			"target":34962
		},
		{
			"buffer":0,
			"byteLength":3120,
			"byteOffset":147752,
			"target":34962
		},
		{
			"buffer":0,
			"byteLength":1104,
			"byteOffset":150872,
			"target":34963
		},
		{
			"buffer":0,
			"byteLength":122340,
			"byteOffset":151976,
			"target":34962
		},
		{
			"buffer":0,
			"byteLength":122340,
			"byteOffset":274316,
			"target":34962
		},
		{
			"buffer":0,
			"byteLength":81560,
			"byteOffset":396656,
			"target":34962
		},
		{
			"buffer":0,
			"byteLength":66912,
			"byteOffset":478216,
			"target":34963
		},
		{
			"buffer":0,
			"byteLength":3216,
			"byteOffset":545128,
			"target":34962
		},
		{
			"buffer":0,
			"byteLength":3216,
			"byteOffset":548344,
			"target":34962
		},
		{
			"buffer":0,
			"byteLength":2144,
			"byteOffset":551560,
			"target":34962
		},
		{
			"buffer":0,
			"byteLength":960,
			"byteOffset":553704,
			"target":34963
		},
		{
			"buffer":0,
			"byteLength":1728,
			"byteOffset":554664,
			"target":34962
		},
		{
			"buffer":0,
			"byteLength":1728,
			"byteOffset":556392,
			"target":34962
		},
		{
			"buffer":0,
			"byteLength":1152,
			"byteOffset":558120,
			"target":34962
		},
		{
			"buffer":0,
			"byteLength":480,
			"byteOffset":559272,
			"target":34963
		},
		{
			"buffer":0,
			"byteLength":18168,
			"byteOffset":559752,
			"target":34962
		},
		{
			"buffer":0,
			"byteLength":18168,
			"byteOffset":577920,
			"target":34962
		},
		{
			"buffer":0,
			"byteLength":12112,
			"byteOffset":596088,
			"target":34962
		},
		{
			"buffer":0,
			"byteLength":18120,
			"byteOffset":608200,
			"target":34963
		},
		{
			"buffer":0,
			"byteLength":47712,
			"byteOffset":626320,
			"target":34962
		},
		{
			"buffer":0,
			"byteLength":47712,
			"byteOffset":674032,
			"target":34962
		},
		{
			"buffer":0,
			"byteLength":31808,
			"byteOffset":721744,
			"target":34962
		},
		{
			"buffer":0,
			"byteLength":16488,
			"byteOffset":753552,
			"target":34963
		},
		{
			"buffer":0,
			"byteLength":48,
			"byteOffset":770040,
			"target":34962
		},
		{
			"buffer":0,
			"byteLength":48,
			"byteOffset":770088,
			"target":34962
		},
		{
			"buffer":0,
			"byteLength":32,
			"byteOffset":770136,
			"target":34962
		},
		{
			"buffer":0,
			"byteLength":12,
			"byteOffset":770168,
			"target":34963
		},
		{
			"buffer":0,
			"byteLength":1176,
			"byteOffset":770180,
			"target":34962
		},
		{
			"buffer":0,
			"byteLength":1176,
			"byteOffset":771356,
			"target":34962
		},
		{
			"buffer":0,
			"byteLength":784,
			"byteOffset":772532,
			"target":34962
		},
		{
			"buffer":0,
			"byteLength":216,
			"byteOffset":773316,
			"target":34963
		},
		{
			"buffer":0,
			"byteLength":60096,
			"byteOffset":773532,
			"target":34962
		},
		{
			"buffer":0,
			"byteLength":60096,
			"byteOffset":833628,
			"target":34962
		},
		{
			"buffer":0,
			"byteLength":40064,
			"byteOffset":893724,
			"target":34962
		},
		{
			"buffer":0,
			"byteLength":25224,
			"byteOffset":933788,
			"target":34963
		}
	],
	"buffers":[
		{
			"byteLength":959012,
			"uri":"model.bin"
		}
	]
}
